M48
;Layer_Color=6321
;FILE_FORMAT=2:5
INCH,LZ
;TYPE=PLATED
T1F00S00C0.00787
T2F00S00C0.01181
T4F00S00C0.03346
T5F00S00C0.07874
;TYPE=NON_PLATED
T6F00S00C0.02559
%
T01
X0020866Y0047047
X0022835Y0050787
X0018898
X0020866Y0054527
X0112106Y0082185
X0116437
Y0086516
X0112106
Y0090846
X0116437
X0120768
Y0086516
Y0082185
T02
X0038583Y0011811
Y0020472
X0041339
Y0023622
Y0026378
X0044488Y0027953
X0044488Y0029921
X004685
Y0027953
X0049213
Y0029921
X0051575
X0051611Y0027916
X0053937Y0027953
Y0029921
X0061992Y0030189
X0061811Y0032283
X0061963Y0025208
X0061024Y0023228
Y0020472
X006107Y0017439
X0055512Y0017323
Y0018898
Y0020866
Y0022835
X0059055Y0039764
Y0043307
X0049213Y004252
Y0044882
Y0047244
X004685Y0044882
X0044488
X004685Y004252
X0049213Y003937
X0044882Y0035039
X003622Y004252
Y0054724
X0040157Y0056299
X0039764Y0059842
Y0061811
Y0063779
X004252Y0066535
X0043307Y0059055
X0030315Y0070079
X0025197Y0070866
X0022835
X0020472
X001811
X001378Y0072441
Y0067716
X0020472Y0075984
X0018898Y0077559
X0017323Y0079134
X0029134Y007874
Y0081102
Y0083465
Y0085827
X003937Y0093701
X0041732
X0051575Y0083858
Y0081102
X0059055Y0080315
X0061811Y0079528
X006063Y0074016
X0063779
X0055906Y0074016
X0055905Y0071653
X0066142Y0085433
X0069291
X0072441
X007559
X0080315Y0082284
X0083071
X0085827Y0084646
X0091339Y0088189
X0094488Y0085433
X0097638
Y0082284
X010315Y0089912
X0102756Y0092913
X010748Y0095669
X0097725
X0081102Y0093307
X0079921Y0091339
X0066535Y0096063
X006811Y0059449
X0074803Y0060874
Y0056937
X007874
X0082677
Y0060874
Y0064811
X007874
Y0060876
X0074803Y0064811
X0073228Y0050787
X0071506Y00419
X008189Y0039764
X0088029Y004137
X0087402Y0033858
X0089764Y003189
X008937Y0024803
X0088976Y0017717
X0091732
X0094488
Y0014961
X0097244
Y0012205
X01
X0102756
X0105512
X0108268
X01Y0014961
X0098819Y0021654
X0101969
X0107874Y0029134
X011063
X0117323
X0120079
X0122835
Y0026378
X0125197Y0027165
X0127953
X0130709
X0130315Y0033465
X0133465
X0138189Y0034252
X0142126
Y0032283
Y0030315
Y0028346
Y0026378
X014252Y0023228
X0143456Y0020443
X0148031Y0020866
Y0023622
Y0032283
Y0034252
X0136221Y0021654
X0133071
X0135039Y0016535
X0133858Y0012598
X0132281Y0010801
X0130491Y0012344
X0126772Y0011417
X0125197Y0012992
X0121653Y0013386
X0119685Y0011417
X0119291Y0020472
X0116142Y0042913
X0108268Y0041339
Y0038583
X0100394Y0045276
X0096457
Y0041339
X0088189Y006063
X0087795Y0070079
X0108268Y0068504
Y0065748
X0111024
X0113779
X0109055Y0058268
X0107087
X0125197Y0059842
X0127559
Y0062205
X0133858Y0065748
X0143307
X0146063
X0145276Y0075197
X014252
X0139764
X0141339Y007874
Y0082677
Y0085433
X0144095
Y0088189
X0141824Y0097816
X0141732Y0100787
X0134252Y0094882
X0146457Y0112598
X0144095Y0137008
X0140792Y0136659
X0145276Y0141732
X0138189Y0149213
X0138976Y0050787
X0136221
X0133465
X0130709
X0123622Y0050394
X014333Y0011976
X0148031Y0009449
X0091339Y0014567
X0079528Y001063
X0072047Y0012598
X0068898
X0071653Y0017717
X007441
X0035827Y0020472
X0033465
X0022835Y0032283
X0019291Y0034793
X0009843Y0048819
Y0051968
X0015354Y0098819
X001811
X0015354Y0114961
Y0117717
X0019685Y0120472
Y0123228
Y0125984
X0016929
X001063Y0133858
X0012205Y0141732
X0020866Y0174803
T04
X0010335Y0027559
X0021161
X0136319
X0147146
Y011811
X0136319
Y015748
X0147146
X0021161
X0010335
T05
X0015748Y019685
X0141732
T06
X0032677Y0065354
Y0088189
M30
